<?xml version="1.0" standalone="no"?>
<!DOCTYPE svg PUBLIC "-//W3C//DTD SVG 20010904//EN"
 "http://www.w3.org/TR/2001/REC-SVG-20010904/DTD/svg10.dtd">
<svg version="1.0" xmlns="http://www.w3.org/2000/svg"
 width="512.000000pt" height="512.000000pt" viewBox="0 0 512.000000 512.000000"
 preserveAspectRatio="xMidYMid meet">
<metadata>
Created by potrace 1.14, written by Peter Selinger 2001-2017
</metadata>
<g transform="translate(0.000000,512.000000) scale(0.100000,-0.100000)"
fill="#000000" stroke="none">
<path d="M4666 5065 c-4 -25 -4 -49 -1 -55 7 -11 -35 -31 -47 -23 -4 2 -4 -6
1 -19 7 -18 4 -29 -18 -51 l-26 -29 23 -19 c17 -13 22 -24 17 -39 -7 -21 -35
-28 -35 -9 0 5 -5 7 -11 3 -6 -3 -8 -16 -5 -28 5 -20 2 -22 -23 -18 -27 4 -28
2 -35 -43 -3 -27 -6 -81 -6 -121 0 -83 6 -79 -97 -74 l-53 2 0 -46 c0 -42 2
-46 18 -37 13 7 28 5 50 -6 37 -18 38 -20 15 -73 -20 -46 -40 -52 -49 -15 -7
30 -20 32 -34 5 -7 -14 -21 -20 -42 -20 l-32 0 37 -38 c20 -21 37 -45 37 -54
0 -9 12 -18 32 -22 35 -7 88 -51 88 -73 0 -16 -3 -16 -52 -1 -22 6 -44 20 -49
30 -6 10 -14 16 -20 13 -5 -4 -8 -1 -7 7 2 8 -6 13 -22 13 -20 0 -27 -8 -42
-49 -9 -27 -15 -53 -12 -58 3 -4 1 -8 -4 -8 -20 0 -44 78 -40 132 3 48 1 54
-14 50 -10 -2 -18 -7 -19 -11 -1 -13 -11 -217 -11 -231 0 -33 2 -556 2 -575 0
-11 -7 -51 -16 -89 -13 -54 -14 -76 -6 -100 12 -33 15 -496 4 -496 -4 0 -18
16 -32 35 -14 20 -38 38 -55 43 -21 5 -36 19 -49 45 -15 32 -23 38 -45 35 -23
-3 -26 -7 -24 -35 2 -18 11 -47 21 -65 30 -53 33 -78 11 -78 -24 0 -24 -4 1
-39 17 -22 19 -32 10 -55 -13 -35 -14 -32 12 -56 l22 -21 -30 3 c-35 2 -57 -9
-48 -25 4 -7 -4 -2 -18 11 -18 16 -28 20 -33 12 -4 -7 2 -14 15 -17 12 -3 19
-11 16 -19 -3 -7 0 -17 7 -21 14 -9 43 -67 50 -102 3 -13 0 -32 -6 -43 -9 -16
-9 -22 1 -25 14 -5 17 -43 3 -43 -5 0 -33 26 -63 59 -45 48 -56 56 -64 43 -9
-13 -13 -13 -34 -1 -14 8 -28 18 -32 24 -4 5 -10 7 -13 4 -3 -4 15 -23 40 -43
53 -44 58 -60 15 -51 -19 4 -30 3 -30 -4 0 -18 -23 -12 -55 14 l-30 24 33 1
c25 0 32 4 32 19 0 11 -5 23 -10 26 -8 5 -8 11 0 20 8 10 8 15 -1 21 -8 4 -9
3 -5 -4 4 -7 1 -12 -8 -12 -20 0 -96 75 -96 95 0 23 12 18 53 -24 42 -43 80
-60 70 -32 -7 18 -63 79 -63 67 0 -4 -10 0 -22 8 -12 9 -30 16 -39 16 -24 0
-79 48 -79 68 0 15 2 15 10 2 6 -10 10 -11 10 -2 0 6 -9 21 -20 32 -13 13 -20
33 -20 58 0 28 -7 45 -25 62 l-25 23 0 -21 c0 -19 -5 -22 -46 -22 -30 0 -51
-5 -58 -15 -9 -12 -18 -9 -59 23 -43 33 -47 40 -43 72 2 24 8 35 19 34 9 -1
13 4 10 12 -3 8 -11 14 -19 14 -8 0 -14 5 -14 10 0 10 13 14 43 11 36 -4 15 9
-42 25 -56 15 -78 34 -65 55 3 5 1 9 -4 9 -6 0 -13 -7 -16 -16 -7 -17 2 -64
13 -64 3 0 6 -11 6 -24 0 -20 -3 -22 -18 -15 -10 6 -24 6 -34 1 -15 -9 -14
-11 4 -20 19 -10 20 -22 22 -161 0 -90 -3 -152 -9 -156 -7 -4 -7 -13 0 -24 5
-10 6 -22 2 -26 -4 -5 -2 -5 5 -1 6 3 15 1 18 -5 5 -8 -9 -9 -49 -4 -36 5 -56
4 -56 -3 0 -6 5 -12 12 -14 23 -8 -4 -28 -37 -28 -19 0 -36 -3 -39 -8 -2 -4
-6 -52 -7 -107 -3 -98 -3 -99 21 -105 19 -5 24 -12 22 -29 -1 -17 2 -22 13
-17 10 4 15 -1 15 -14 0 -27 -15 -25 -39 6 -12 15 -22 23 -22 18 -6 -32 -12
-148 -17 -328 l-2 -70 -28 27 c-46 44 -63 31 -58 -43 2 -34 4 -35 42 -35 29 0
39 -4 42 -17 2 -12 -1 -16 -11 -12 -13 4 -14 -1 -7 -30 4 -21 4 -36 -1 -36 -5
0 -9 5 -9 10 0 13 -36 13 -60 0 -17 -9 -20 -6 -26 17 -4 16 -10 33 -15 38 -4
6 -6 27 -4 47 2 26 -2 42 -16 54 -10 9 -16 21 -13 26 3 5 9 22 14 38 7 25 6
28 -11 25 -11 -2 -27 6 -39 22 -23 30 -26 53 -6 53 23 0 27 14 16 66 -7 40 -6
51 6 61 9 6 14 22 13 35 -2 13 0 29 4 36 11 17 0 32 -24 32 -11 0 -28 4 -38 9
-9 5 -23 6 -30 1 -17 -10 -122 26 -139 48 -9 12 -28 17 -62 17 -26 0 -48 4
-47 10 1 6 -3 9 -9 8 -10 -2 -12 4 -16 46 -1 11 -6 17 -11 14 -11 -7 -67 17
-67 28 0 5 -11 9 -25 9 -18 0 -23 -4 -19 -15 4 -9 14 -13 23 -10 30 9 56 -80
26 -91 -19 -8 -10 -48 19 -87 15 -21 26 -26 41 -22 11 4 26 7 33 7 19 2 14 29
-7 35 -11 3 -22 15 -25 26 -9 36 -7 41 12 24 10 -10 25 -17 33 -17 26 -1 59
-35 84 -85 32 -67 18 -78 -42 -31 -27 21 -56 36 -68 34 -30 -4 -31 -48 -2 -80
l23 -25 -22 -28 c-21 -27 -44 -27 -44 -1 0 7 -34 42 -76 77 -42 35 -80 73 -84
85 -5 12 -22 28 -39 35 -17 8 -31 18 -31 22 0 5 -5 5 -12 1 -8 -5 -9 0 -6 14
4 12 2 20 -3 16 -5 -3 -9 0 -9 6 0 7 -12 9 -32 5 -38 -7 -131 30 -162 64 -22
25 -56 28 -56 5 0 -8 -4 -12 -10 -9 -5 3 -10 14 -10 23 0 11 -16 24 -43 35
-53 21 -95 9 -120 -36 -27 -47 -34 -30 -37 92 -1 54 10 67 40 51 20 -11 25 -9
41 11 l18 24 10 -27 c13 -34 28 -42 39 -21 8 13 22 16 68 14 61 -3 93 -14 107
-38 7 -11 19 -13 48 -8 38 7 40 5 54 -28 10 -25 22 -36 42 -39 15 -3 36 -9 46
-13 12 -5 17 -3 17 9 0 9 -5 16 -11 16 -5 0 -15 13 -20 29 -7 18 -20 32 -35
35 -16 4 -31 19 -39 39 -12 27 -20 30 -16 5 0 -3 -13 -3 -29 2 -15 4 -30 7
-32 5 -2 -1 -15 -5 -30 -9 -23 -5 -28 -3 -28 12 0 9 -13 33 -29 52 -15 19 -31
45 -35 57 -16 52 -49 28 -45 -33 3 -35 -9 -74 -22 -74 -13 0 -11 17 4 24 8 3
7 8 -5 16 -10 6 -18 20 -18 30 0 23 -10 25 -29 8 -10 -11 -15 -9 -26 6 -11 15
-17 16 -28 8 -8 -7 -17 -8 -22 -4 -4 4 -2 -3 4 -15 10 -19 9 -23 -4 -23 -9 0
-14 4 -11 8 2 4 -10 6 -29 4 -18 -2 -36 1 -39 7 -4 6 -27 11 -52 11 -32 0 -43
3 -38 12 4 7 3 8 -5 4 -17 -11 -58 1 -65 19 -4 11 -2 14 6 9 8 -5 9 -2 5 10
-4 10 -7 24 -7 31 0 14 -24 25 -67 30 -26 3 -57 25 -34 25 6 0 -10 23 -37 50
-27 28 -54 50 -60 50 -6 0 -18 7 -26 16 -15 14 -16 13 -16 -8 0 -13 6 -30 12
-37 11 -10 9 -14 -5 -22 -11 -7 -17 -21 -17 -42 1 -18 1 -116 0 -219 0 -156
-3 -188 -16 -199 -13 -11 -21 -10 -45 3 l-29 17 0 -44 c0 -25 0 -48 0 -52 0
-5 18 -9 40 -11 l40 -3 0 -89 c0 -83 -1 -89 -20 -85 -12 2 -24 -4 -30 -15 -15
-29 -12 -33 20 -28 17 3 30 0 30 -6 1 -6 3 -28 6 -48 l6 -38 -51 0 c-53 0 -70
12 -51 35 8 10 11 34 8 65 -5 49 -5 50 23 50 34 0 39 15 7 17 -13 1 -35 5 -49
8 -24 6 -28 3 -37 -27 -6 -18 -14 -85 -17 -148 -4 -63 -9 -131 -12 -150 -8
-58 -14 -114 -16 -139 -3 -42 -23 -34 -39 16 -11 36 -25 55 -54 75 -37 25 -39
29 -40 82 0 30 -7 62 -14 71 -7 8 -9 15 -4 15 18 1 -39 40 -57 40 -21 0 -26
-29 -9 -46 6 -6 12 -19 14 -30 4 -17 -1 -19 -32 -16 -21 3 -33 1 -29 -4 5 -5
13 -10 18 -10 5 -1 12 -3 17 -4 4 -2 14 -3 22 -4 21 -1 25 -35 5 -42 -19 -8
-108 19 -113 34 -2 6 6 13 17 17 31 10 26 26 -24 73 -27 25 -43 48 -39 54 6 9
9 9 12 0 4 -13 22 -6 22 9 0 5 -15 9 -34 9 -21 0 -36 6 -40 16 -3 8 -2 12 4 9
14 -8 13 1 -2 25 -11 17 -10 22 2 30 11 7 9 11 -13 19 -15 6 -26 16 -25 23 4
20 -63 23 -74 4 -5 -9 -19 -16 -31 -16 -20 -1 -19 -3 13 -31 l35 -31 -30 7
c-45 10 -74 32 -80 63 -17 81 -20 87 -46 88 -22 1 -25 -3 -21 -23 6 -31 -18
-30 -48 2 -26 28 -50 33 -50 10 0 -8 -2 -15 -3 -15 -14 0 -76 38 -94 57 -21
22 -53 30 -65 17 -4 -3 -2 -19 2 -35 7 -25 6 -29 -10 -29 -30 0 -34 -20 -9
-46 22 -23 22 -24 3 -45 -17 -19 -19 -19 -31 -3 -7 9 -10 21 -7 25 3 5 -1 9
-8 9 -11 0 -10 2 0 9 11 7 11 9 -2 14 -19 8 -21 -14 -5 -46 7 -12 8 -19 4 -15
-5 4 -14 3 -22 -3 -7 -7 -28 -9 -48 -6 -32 5 -34 4 -25 -14 8 -14 15 -17 28
-10 11 6 23 3 42 -10 14 -11 36 -28 49 -38 31 -23 19 -44 -20 -39 -16 3 -29 1
-29 -4 0 -5 -6 -6 -12 -2 -7 4 -5 -2 5 -13 22 -25 22 -31 -3 -35 -24 -4 -30
-22 -9 -26 9 -1 28 9 43 23 29 27 50 33 44 13 -3 -7 -10 -13 -17 -13 -7 0 -18
-8 -25 -17 -7 -10 -17 -14 -22 -10 -4 4 -3 0 4 -9 10 -13 10 -18 0 -22 -17 -6
-58 10 -58 23 0 5 -9 10 -20 10 -26 0 -25 -12 4 -41 30 -31 40 -80 17 -86 -16
-4 -41 -46 -41 -69 0 -6 7 -14 15 -18 19 -7 20 -36 1 -36 -10 0 -13 -7 -9 -23
3 -12 4 -31 3 -42 -1 -11 -3 -378 -4 -815 l-1 -795 2557 -3 2558 -2 0 2440 c0
1742 -3 2440 -11 2440 -6 0 -27 17 -47 38 -59 61 -102 92 -126 92 -13 0 -32
11 -42 25 -21 28 -34 32 -34 10 0 -8 -5 -15 -11 -15 -22 0 -109 33 -109 41 0
5 -6 9 -14 9 -7 0 -19 7 -26 15 -20 24 -27 18 -34 -30z m114 -111 c0 -24 -17
-15 -22 11 -4 20 -3 23 8 14 8 -6 14 -18 14 -25z m40 -49 c0 -21 30 -31 40
-14 7 11 14 9 33 -9 27 -25 57 -29 57 -7 0 9 6 12 18 8 21 -7 72 -53 72 -65 0
-5 11 -21 25 -36 14 -15 24 -31 22 -36 -2 -6 -31 -11 -64 -12 -56 -1 -64 1
-89 27 -15 16 -32 29 -37 29 -4 0 -15 7 -23 15 -9 8 -24 15 -34 15 -27 0 -50
39 -43 73 6 29 23 38 23 12z m-50 -157 c0 -6 -6 -5 -15 2 -8 7 -15 14 -15 16
0 2 7 1 15 -2 8 -4 15 -11 15 -16z m272 -74 c-6 -29 -10 -29 -37 -4 -17 16
-22 26 -14 31 20 12 54 -7 51 -27z m-165 -179 c30 -21 54 -70 40 -84 -12 -12
-47 3 -47 21 0 7 -9 22 -21 34 -12 12 -18 27 -14 33 8 15 17 14 42 -4z m-1417
-1763 c-15 -5 -40 17 -40 36 0 12 6 10 26 -9 14 -13 20 -25 14 -27z m682 24
c14 -21 8 -29 -10 -13 -26 24 -32 21 -32 -13 0 -16 -4 -30 -8 -30 -20 0 -57
62 -45 74 9 9 87 -6 95 -18z m-55 -122 c3 -41 0 -53 -13 -58 -21 -8 -30 5 -38
57 -7 42 4 60 34 54 10 -1 15 -18 17 -53z m-708 -117 c11 -14 5 -27 -11 -27
-5 0 -7 4 -3 9 3 6 -3 14 -12 20 -16 9 -16 10 -2 11 9 0 22 -6 28 -13z m791
-19 c0 -19 -2 -20 -10 -8 -13 19 -13 30 0 30 6 0 10 -10 10 -22z m-644 -12 c8
-14 27 -26 42 -28 16 -2 28 -10 30 -20 2 -12 -3 -16 -20 -14 -33 3 -68 24 -68
41 0 7 -9 17 -20 20 -11 4 -18 11 -15 16 11 17 34 9 51 -15z m-212 -41 c11 -8
16 -18 13 -22 -11 -11 -47 -14 -44 -4 1 5 -7 17 -18 25 -20 15 -20 15 5 15 14
0 34 -6 44 -14z m-1477 -42 c-1 -26 -7 -38 -17 -38 -8 0 -13 7 -11 15 2 8 3
25 3 38 0 12 6 22 14 22 9 0 12 -12 11 -37z m1366 22 c39 -16 42 -45 4 -45
-27 0 -57 28 -50 46 6 17 3 17 46 -1z m302 -35 c3 -5 1 -10 -4 -10 -6 0 -11 5
-11 10 0 6 2 10 4 10 3 0 8 -4 11 -10z m-132 -52 c27 -32 21 -39 -30 -34 -27
3 -52 5 -56 5 -5 1 0 14 10 31 20 34 45 33 76 -2z m-1556 -30 c-3 -8 -6 -5 -6
6 -1 11 2 17 5 13 3 -3 4 -12 1 -19z m-323 -44 c4 -9 4 -19 1 -22 -6 -6 -35
18 -35 29 0 16 28 10 34 -7z m1653 -106 c-3 -8 -6 -5 -6 6 -1 11 2 17 5 13 3
-3 4 -12 1 -19z m-2659 -94 c38 -19 41 -28 7 -22 -38 8 -40 -9 -4 -27 17 -9
28 -12 25 -7 -4 6 -2 13 3 16 5 3 11 -4 14 -15 3 -11 14 -23 25 -26 29 -7 23
-57 -7 -61 -13 -2 -24 3 -28 15 -10 28 -50 73 -58 65 -9 -9 -44 39 -45 61 0
21 27 22 68 1z m1696 0 c8 -21 3 -26 -17 -18 -9 3 -13 12 -10 20 7 19 19 18
27 -2z m-444 -15 c0 -6 7 -9 15 -5 10 4 15 -1 15 -15 0 -16 -3 -18 -19 -10
-21 12 -36 41 -21 41 6 0 10 -5 10 -11z m191 -101 c5 -7 9 -21 9 -32 0 -12 5
-16 15 -12 17 6 85 -49 85 -70 0 -24 -29 -15 -59 18 -25 28 -31 30 -45 19 -13
-11 -20 -11 -38 1 -13 8 -39 14 -58 13 -19 -1 -41 3 -49 9 -12 9 -12 8 0 -11
9 -16 16 -19 21 -10 6 9 8 9 8 -2 0 -11 3 -11 15 -1 13 11 14 10 9 -5 -5 -13
-4 -16 4 -11 7 4 12 2 12 -3 0 -6 6 -11 14 -11 8 0 21 -8 28 -18 7 -11 20 -21
28 -24 9 -3 10 -7 3 -11 -5 -3 -25 5 -43 18 -20 15 -48 25 -67 25 -30 0 -35 4
-32 27 0 7 -62 37 -73 35 -5 -1 -8 2 -8 7 0 6 12 9 26 8 19 -1 27 3 30 17 1
10 8 24 15 30 9 8 10 7 4 -4 -7 -12 -6 -13 6 -3 31 24 125 26 140 1z m-231
-56 c0 -9 -65 -45 -86 -48 -8 -1 -14 2 -14 7 0 8 14 13 31 11 4 -1 15 8 24 18
18 20 45 27 45 12z m1230 -406 c0 -3 -4 -8 -10 -11 -5 -3 -10 -1 -10 4 0 6 5
11 10 11 6 0 10 -2 10 -4z m-2819 -36 c18 -10 27 -50 11 -50 -15 0 -53 41 -47
51 8 11 12 11 36 -1z m-36 -140 c-3 -5 -10 -10 -16 -10 -5 0 -9 5 -9 10 0 6 7
10 16 10 8 0 12 -4 9 -10z m54 -45 c27 -13 41 -33 41 -56 0 -12 -38 7 -67 34
-40 36 -25 49 26 22z"/>
<path d="M1846 1928 c3 -4 9 -8 15 -8 5 0 9 4 9 8 0 5 -7 9 -15 9 -8 0 -12 -4
-9 -9z"/>
<path d="M4840 5090 c0 -5 5 -10 10 -10 6 0 10 5 10 10 0 6 -4 10 -10 10 -5 0
-10 -4 -10 -10z"/>
<path d="M4565 5000 c3 -5 12 -7 20 -3 21 7 19 13 -6 13 -11 0 -18 -4 -14 -10z"/>
<path d="M4202 4343 c2 -22 9 -29 31 -31 18 -2 29 2 34 14 7 19 -20 44 -50 44
-14 0 -18 -6 -15 -27z"/>
<path d="M3975 3810 c3 -5 8 -10 11 -10 2 0 4 5 4 10 0 6 -5 10 -11 10 -5 0
-7 -4 -4 -10z"/>
<path d="M4022 3728 c6 -18 28 -21 28 -4 0 9 -7 16 -16 16 -9 0 -14 -5 -12
-12z"/>
<path d="M3772 3688 c5 -15 28 -23 28 -10 0 5 -7 13 -16 16 -10 4 -14 1 -12
-6z"/>
<path d="M4120 3671 c0 -5 5 -13 10 -16 6 -3 10 -2 10 4 0 5 -4 13 -10 16 -5
3 -10 2 -10 -4z"/>
<path d="M3296 3611 c-7 -11 3 -41 13 -41 17 0 43 28 37 38 -9 14 -42 16 -50
3z"/>
<path d="M3865 3610 c3 -5 8 -10 11 -10 2 0 4 5 4 10 0 6 -5 10 -11 10 -5 0
-7 -4 -4 -10z"/>
<path d="M3416 3571 c-3 -4 -3 -42 -1 -86 3 -88 12 -101 77 -111 21 -4 43 -13
49 -20 6 -8 9 -14 5 -14 -5 0 27 -32 174 -176 46 -44 118 -86 133 -77 9 6 -11
33 -25 33 -5 0 -23 14 -40 30 -16 17 -37 30 -47 30 -18 0 -61 67 -92 145 -10
25 -27 45 -45 54 -16 7 -41 24 -55 37 -14 14 -29 21 -33 17 -5 -6 -56 42 -56
53 0 2 15 -6 34 -17 47 -28 53 -10 15 45 -30 42 -83 74 -93 57z"/>
<path d="M4030 3500 c0 -20 53 -77 58 -61 3 10 -40 80 -50 81 -5 0 -8 -9 -8
-20z"/>
<path d="M3910 3468 c0 -18 18 -34 28 -24 3 4 -2 14 -11 23 -16 16 -17 16 -17
1z"/>
<path d="M1545 3430 c3 -5 8 -10 11 -10 2 0 4 5 4 10 0 6 -5 10 -11 10 -5 0
-7 -4 -4 -10z"/>
<path d="M1077 3414 c-3 -4 3 -18 14 -33 14 -18 31 -26 52 -27 l32 -1 -31 33
c-29 32 -53 42 -67 28z"/>
<path d="M1614 3376 c-7 -18 13 -56 29 -56 7 0 18 5 25 12 8 8 6 17 -11 34
-26 27 -35 30 -43 10z"/>
<path d="M2065 3350 c3 -5 11 -10 16 -10 6 0 7 5 4 10 -3 6 -11 10 -16 10 -6
0 -7 -4 -4 -10z"/>
<path d="M3230 3327 c0 -8 9 -26 20 -40 11 -14 20 -32 20 -41 0 -23 27 -20 40
5 13 24 -6 51 -52 75 -24 12 -28 12 -28 1z"/>
<path d="M4086 3323 c-7 -7 13 -33 25 -33 5 0 9 6 9 14 0 15 -24 28 -34 19z"/>
<path d="M1573 3265 c-17 -19 -16 -32 3 -39 22 -8 33 2 14 14 -11 7 -11 11 -1
24 17 20 1 21 -16 1z"/>
<path d="M1635 3270 c3 -5 8 -10 11 -10 2 0 4 5 4 10 0 6 -5 10 -11 10 -5 0
-7 -4 -4 -10z"/>
<path d="M3340 3263 c0 -10 7 -27 15 -37 8 -10 12 -22 10 -27 -9 -14 18 -60
32 -55 7 3 13 -1 13 -9 0 -24 -17 -26 -44 -4 -14 11 -26 17 -26 13 0 -4 -11 5
-25 20 -13 14 -29 26 -36 26 -6 0 -8 7 -5 16 3 8 2 12 -4 9 -6 -3 -10 -1 -10
6 0 8 -4 8 -15 -1 -12 -10 -15 -10 -15 3 0 20 -36 41 -56 33 -22 -8 -17 -42 9
-59 15 -10 29 -12 39 -6 14 8 16 4 11 -22 -4 -26 1 -37 27 -60 39 -36 85 -61
95 -51 5 4 5 1 1 -6 -6 -9 -21 -11 -54 -6 -43 6 -46 6 -33 -9 13 -17 91 -25
91 -9 0 4 18 15 39 26 42 20 90 16 112 -10 23 -28 34 -15 33 37 -1 44 -7 57
-40 95 -22 24 -39 51 -39 60 0 25 -35 44 -82 44 -34 0 -43 -3 -43 -17z m115
-72 c3 -6 -4 -15 -15 -21 -20 -11 -21 -10 -10 9 12 23 16 25 25 12z"/>
<path d="M1954 3263 c-22 -16 -42 -187 -22 -199 5 -3 4 -12 -4 -21 -10 -12 -8
-18 12 -34 14 -10 32 -19 40 -19 8 0 30 -9 49 -21 36 -21 67 -19 57 6 -8 21
18 65 49 81 36 18 54 18 78 -3 13 -11 17 -12 12 -4 -6 11 -4 13 9 8 14 -6 15
-3 6 13 -6 11 -8 24 -5 29 16 27 -50 72 -73 49 -14 -14 -96 -12 -124 3 l-22
12 23 18 c17 14 28 16 48 8 14 -5 28 -7 31 -5 6 6 -18 66 -27 67 -3 0 -15 2
-26 5 -53 11 -101 14 -111 7z m26 -213 c0 -5 -4 -10 -10 -10 -5 0 -10 5 -10
10 0 6 5 10 10 10 6 0 10 -4 10 -10z"/>
<path d="M1660 3251 c0 -5 7 -14 15 -21 8 -7 15 -18 15 -25 0 -7 11 -16 24
-19 13 -3 26 -15 29 -27 4 -14 10 -18 19 -14 10 6 10 5 1 -5 -10 -11 -18 -11
-39 -1 -22 10 -28 9 -38 -5 -10 -13 -17 -14 -34 -5 -27 15 -29 14 -35 -8 -3
-11 -19 -22 -43 -29 -33 -8 -35 -10 -12 -11 17 -1 29 -8 33 -21 9 -28 25 -25
25 4 0 31 14 40 30 20 8 -8 20 -12 29 -8 9 3 38 12 65 20 47 13 50 12 79 -12
23 -19 32 -22 43 -13 20 16 17 29 -5 29 -10 0 -31 16 -45 35 -15 20 -31 33
-36 30 -13 -8 -22 43 -11 64 6 10 7 21 4 25 -10 9 -113 7 -113 -3z"/>
<path d="M1840 3230 c0 -5 5 -10 10 -10 6 0 10 5 10 10 0 6 -4 10 -10 10 -5 0
-10 -4 -10 -10z"/>
<path d="M3876 3212 c-9 -15 6 -52 21 -52 8 0 20 -6 26 -12 19 -21 37 -81 31
-105 -5 -17 -2 -23 9 -23 12 0 15 11 13 50 -2 28 0 50 3 50 15 -1 38 -28 50
-57 17 -42 27 -42 35 1 7 37 0 83 -16 103 -11 13 -38 6 -53 -14 -15 -20 -42
-6 -50 25 -4 15 -12 30 -18 34 -16 10 -45 10 -51 0z"/>
<path d="M1100 3200 c0 -6 -11 -8 -25 -4 -34 8 -33 -17 0 -51 32 -31 40 -31
59 -3 20 29 20 54 0 62 -23 9 -34 7 -34 -4z"/>
<path d="M2185 3190 c3 -5 8 -10 11 -10 2 0 4 5 4 10 0 6 -5 10 -11 10 -5 0
-7 -4 -4 -10z"/>
<path d="M1140 3116 c0 -2 7 -6 15 -10 8 -3 15 -1 15 4 0 6 -7 10 -15 10 -8 0
-15 -2 -15 -4z"/>
<path d="M986 3083 c-17 -17 5 -93 27 -93 2 0 7 18 9 41 3 30 0 43 -13 49 -9
5 -19 6 -23 3z"/>
<path d="M4083 3024 c7 -74 21 -101 43 -83 16 13 19 55 4 64 -5 3 -7 11 -4 19
8 21 -14 66 -32 66 -15 0 -16 -9 -11 -66z"/>
<path d="M1785 3054 c2 -10 4 -22 4 -26 1 -5 7 -8 15 -8 7 0 20 -10 29 -22 8
-13 18 -20 21 -17 4 3 -11 26 -33 49 -27 30 -39 37 -36 24z"/>
<path d="M1470 3030 c0 -8 24 -21 48 -26 24 -5 11 12 -18 23 -16 6 -30 8 -30
3z"/>
<path d="M1560 3005 c0 -8 5 -15 10 -15 6 0 10 7 10 15 0 8 -4 15 -10 15 -5 0
-10 -7 -10 -15z"/>
<path d="M2311 2988 c24 -37 49 -50 49 -25 -1 17 -40 65 -40 48 0 -11 -3 -11
-17 0 -10 9 -7 0 8 -23z"/>
<path d="M3380 2976 c0 -9 5 -16 10 -16 6 0 10 4 10 9 0 6 -4 13 -10 16 -5 3
-10 -1 -10 -9z"/>
<path d="M3756 2981 c-9 -15 23 -36 35 -24 8 8 5 14 -9 22 -12 6 -23 7 -26 2z"/>
<path d="M650 2965 c0 -8 10 -19 23 -24 12 -5 42 -28 66 -50 46 -44 57 -47 46
-12 -5 18 -44 47 -122 95 -8 4 -13 1 -13 -9z"/>
<path d="M1765 2927 c-10 -25 49 -117 75 -117 15 0 17 9 16 63 l-2 62 -42 3
c-29 2 -44 -1 -47 -11z"/>
<path d="M3440 2912 c0 -4 21 -20 46 -35 45 -27 48 -23 10 20 -18 22 -56 32
-56 15z"/>
<path d="M2400 2881 c13 -25 33 -28 28 -4 -2 10 -11 19 -21 21 -16 3 -17 1 -7
-17z"/>
<path d="M3552 2877 c-9 -10 -1 -17 38 -31 27 -10 54 -15 59 -12 19 12 -1 36
-37 46 -47 13 -47 13 -60 -3z"/>
<path d="M2000 2871 c0 -6 5 -13 10 -16 6 -3 10 1 10 9 0 9 -4 16 -10 16 -5 0
-10 -4 -10 -9z"/>
<path d="M2234 2845 c-4 -9 -1 -22 6 -28 10 -9 11 -9 5 2 -6 11 -4 13 8 8 21
-8 22 6 2 23 -12 10 -16 9 -21 -5z"/>
<path d="M3084 2815 c-10 -24 5 -35 47 -35 46 0 49 10 10 33 -36 21 -50 21
-57 2z"/>
<path d="M784 2809 c-3 -6 -1 -23 6 -39 14 -33 48 -49 61 -29 12 19 11 29 -2
29 -5 0 -8 4 -5 9 3 5 0 13 -7 18 -21 17 -46 22 -53 12z"/>
<path d="M2285 2810 c-3 -5 -1 -10 4 -10 6 0 11 5 11 10 0 6 -2 10 -4 10 -3 0
-8 -4 -11 -10z"/>
<path d="M3687 2809 c-28 -16 -21 -61 16 -99 l32 -33 -45 25 c-50 27 -81 32
-73 11 3 -7 11 -13 18 -13 6 0 20 -9 29 -19 20 -22 54 -33 61 -20 3 4 16 4 29
-1 39 -15 37 0 -6 51 -38 45 -40 50 -24 62 16 12 16 14 -1 29 -13 12 -23 14
-36 7z"/>
<path d="M2083 2759 c35 -42 48 -47 67 -24 7 9 19 14 27 11 10 -4 11 -1 4 13
-17 31 -35 39 -83 39 l-46 -1 31 -38z"/>
<path d="M3830 2775 c0 -8 7 -15 15 -15 8 0 15 7 15 15 0 8 -7 15 -15 15 -8 0
-15 -7 -15 -15z"/>
<path d="M514 2761 c3 -4 -6 -7 -19 -5 -14 1 -39 -3 -55 -9 -24 -9 -29 -16
-24 -32 5 -16 4 -18 -7 -7 -18 17 -59 15 -59 -3 0 -15 32 -26 64 -22 10 1 21
-4 23 -10 3 -9 -6 -13 -26 -13 -40 0 -39 -8 3 -49 33 -32 56 -35 56 -5 0 9 11
14 35 14 33 0 35 2 36 33 2 40 2 39 -6 60 -6 13 -2 17 15 17 16 0 20 4 16 16
-3 9 -6 18 -6 20 0 2 -12 4 -26 4 -14 0 -23 -4 -20 -9z"/>
<path d="M3830 2736 c0 -8 6 -16 14 -19 10 -4 12 0 9 14 -6 22 -23 26 -23 5z"/>
<path d="M692 2728 c5 -15 28 -23 28 -10 0 5 -7 13 -16 16 -10 4 -14 1 -12 -6z"/>
<path d="M2193 2725 c-14 -15 -17 -74 -5 -90 4 -5 17 -16 29 -22 25 -14 39 -2
27 25 -4 9 -8 23 -10 30 -3 18 33 34 59 26 l22 -6 -23 25 c-22 24 -59 30 -55
10 1 -5 -4 -10 -12 -10 -7 0 -11 6 -8 14 7 17 -9 16 -24 -2z"/>
<path d="M1590 2720 c-9 -6 -10 -10 -3 -10 6 0 15 5 18 10 8 12 4 12 -15 0z"/>
<path d="M1692 2706 c7 -8 17 -12 22 -9 4 3 2 9 -5 14 -22 13 -31 11 -17 -5z"/>
<path d="M926 2695 c4 -8 8 -15 10 -15 2 0 4 7 4 15 0 8 -4 15 -10 15 -5 0 -7
-7 -4 -15z"/>
<path d="M1610 2696 c0 -9 30 -14 35 -6 4 6 -3 10 -14 10 -12 0 -21 -2 -21 -4z"/>
<path d="M2027 2685 c3 -9 8 -13 11 -11 3 3 11 1 19 -5 7 -6 13 -8 13 -4 0 9
-31 34 -42 35 -4 0 -5 -7 -1 -15z"/>
<path d="M2370 2621 c0 -6 6 -13 13 -18 17 -10 67 -11 60 0 -3 5 -11 6 -18 3
-8 -3 -19 2 -25 10 -14 16 -30 19 -30 5z"/>
<path d="M2277 2590 c-3 -11 3 -26 12 -34 19 -18 51 -21 51 -6 0 5 8 6 18 3
15 -6 15 -5 3 10 -8 10 -16 15 -19 13 -3 -3 -17 3 -32 14 -27 19 -28 19 -33 0z"/>
<path d="M496 2523 c4 -27 12 -53 19 -58 7 -6 15 -21 20 -33 6 -21 61 -54 82
-51 22 4 33 -3 33 -20 0 -19 43 -61 61 -61 16 0 9 25 -12 43 -11 10 -19 21
-16 24 12 11 48 -10 62 -38 20 -37 35 -37 35 1 0 29 13 40 25 20 11 -18 25
-10 25 15 0 17 -8 29 -25 37 -14 6 -25 17 -25 24 0 7 -13 22 -30 34 l-30 21 0
-20 c0 -12 6 -21 14 -21 8 0 16 -7 20 -15 11 -29 -29 -15 -49 18 -14 23 -35
37 -69 48 -27 9 -53 23 -58 32 -8 15 -62 47 -79 47 -5 0 -6 -21 -3 -47z"/>
<path d="M427 2506 c-3 -8 2 -21 12 -30 15 -14 20 -14 30 -3 8 11 8 17 -1 24
-27 20 -36 22 -41 9z"/>
<path d="M1920 2503 c0 -5 9 -19 20 -33 17 -22 19 -23 25 -7 10 25 -1 47 -25
47 -11 0 -20 -3 -20 -7z"/>
<path d="M2703 2494 c-3 -8 2 -23 11 -33 9 -10 16 -21 16 -24 0 -12 -36 -7
-56 8 -24 18 -34 19 -34 1 0 -8 11 -23 24 -34 14 -10 33 -34 44 -53 13 -23 25
-33 38 -31 17 3 82 30 93 39 2 2 -10 21 -27 42 -33 41 -41 71 -20 71 27 0 -9
18 -45 23 -28 4 -40 1 -44 -9z"/>
<path d="M2282 2488 c3 -7 14 -18 25 -23 12 -6 27 -16 35 -22 7 -7 19 -9 25
-5 8 5 1 17 -22 35 -35 28 -70 36 -63 15z"/>
<path d="M60 2335 c0 -9 5 -15 11 -13 14 5 14 21 0 26 -6 2 -11 -4 -11 -13z"/>
<path d="M2255 2330 c-9 -15 4 -30 26 -30 25 0 25 16 0 30 -13 7 -22 7 -26 0z"/>
<path d="M620 2320 c0 -5 5 -10 10 -10 6 0 10 5 10 10 0 6 -4 10 -10 10 -5 0
-10 -4 -10 -10z"/>
<path d="M350 2307 c0 -9 40 -35 44 -28 3 4 -6 13 -19 19 -14 7 -25 10 -25 9z"/>
<path d="M2845 2291 c-3 -5 -1 -12 5 -16 12 -7 30 2 30 16 0 12 -27 12 -35 0z"/>
<path d="M2925 2270 c-2 -4 3 -17 12 -29 10 -16 19 -19 26 -12 7 7 7 14 -1 24
-7 8 -10 16 -7 19 3 2 -2 5 -10 5 -9 0 -18 -3 -20 -7z"/>
<path d="M640 2250 c0 -5 5 -10 11 -10 5 0 7 5 4 10 -3 6 -8 10 -11 10 -2 0
-4 -4 -4 -10z"/>
<path d="M840 2218 c0 -4 4 -8 9 -8 6 0 12 4 15 8 3 5 -1 9 -9 9 -8 0 -15 -4
-15 -9z"/>
<path d="M1090 2202 c0 -18 29 -52 43 -52 9 0 9 33 1 54 -9 23 -44 21 -44 -2z"/>
<path d="M830 2153 c0 -4 11 -15 24 -25 22 -16 22 -15 21 5 -1 14 -9 23 -23
25 -12 2 -22 0 -22 -5z"/>
<path d="M1055 2120 c-8 -13 26 -70 42 -70 19 0 16 45 -5 63 -21 20 -28 21
-37 7z"/>
<path d="M900 2081 c0 -11 5 -23 10 -26 6 -4 8 -10 5 -15 -5 -9 20 -22 28 -14
6 7 -25 74 -35 74 -4 0 -8 -9 -8 -19z"/>
<path d="M985 2061 c-3 -5 -1 -12 5 -16 5 -3 10 1 10 9 0 18 -6 21 -15 7z"/>
<path d="M4 2043 c3 -19 36 -27 36 -8 0 7 -7 16 -16 19 -22 8 -23 8 -20 -11z"/>
<path d="M2877 2000 c3 -11 9 -20 15 -20 5 0 4 9 -2 20 -6 11 -12 20 -14 20
-2 0 -2 -9 1 -20z"/>
<path d="M2920 1965 c0 -11 7 -15 23 -13 12 2 22 8 22 13 0 6 -10 11 -22 13
-16 2 -23 -2 -23 -13z"/>
</g>
</svg>
